<svg width="52" height="52" viewBox="0 0 52 52" fill="none" xmlns="http://www.w3.org/2000/svg">
<g clip-path="url(#clip0_6_61)">
<rect width="52" height="52" rx="26" fill="white"/>
<circle cx="26" cy="26" r="26" fill="#056DAE"/>
<path d="M13.7904 20.275C12.9688 28.6938 11.6792 31.7722 10.9824 32.8642C10.8056 33.1346 10.9772 33.4986 11.2944 33.5402L25.5372 35.407L26.4004 6.38063C26.4004 6.38063 15.3036 4.70103 13.7904 20.275Z" fill="#441D39"/>
<path d="M42.3124 32.8642C41.6104 31.7722 40.3208 28.6938 39.5044 20.275C37.9912 4.70102 26.5824 6.37022 26.5824 6.37022L27.7628 35.4018L42.0056 33.535C42.328 33.4934 42.4944 33.1346 42.3176 32.859L42.3124 32.8642Z" fill="#441D39"/>
<path d="M21.5385 33.5502L20.8365 39.447L31.6941 39.135L30.9661 33.5502H21.5385Z" fill="#FFC7A4"/>
<path d="M21.1326 36.9509C21.1326 36.9509 28.4386 37.6217 31.0126 34.4185V30.7369L21.7514 31.6261L21.1326 36.9509V36.9509Z" fill="#F2B594"/>
<path d="M39.0575 21.6161C38.9327 20.2953 37.8563 20.0977 37.3311 20.0821C36.8163 13.1661 31.9439 6.38525 26.4059 6.38525C20.8679 6.38525 16.6247 13.1661 16.1099 20.0821C15.6575 20.0769 14.3991 20.1861 14.2639 21.6213C14.0975 23.3737 14.6851 24.7205 15.7771 25.3029C15.7771 25.3029 16.0111 25.4173 16.5467 25.5109V25.4745C17.8987 31.0177 21.9443 35.0373 26.7231 35.0373C31.5019 35.0373 35.5423 31.0229 36.8995 25.4849C37.3467 25.3965 37.5495 25.3029 37.5495 25.3029C38.6415 24.7205 39.2291 23.3737 39.0627 21.6213L39.0575 21.6161Z" fill="#FFC7A4"/>
<path d="M19.4063 18.6579C21.1639 18.3407 22.7187 18.5903 23.5091 18.7411C23.7483 18.7879 23.9875 18.6735 24.0603 18.4759C24.1435 18.2523 23.9875 18.0235 23.7171 17.9715C22.8175 17.7999 21.2003 17.5399 19.5051 18.1327C19.2451 18.2263 18.7823 18.4811 18.9227 18.6839C19.0007 18.7567 19.1723 18.6943 19.4063 18.6527V18.6579Z" fill="#441D39"/>
<path d="M34.1275 18.6579C32.3699 18.3407 30.8151 18.5903 30.0247 18.7411C29.7855 18.7879 29.5463 18.6735 29.4735 18.4759C29.3903 18.2523 29.5463 18.0235 29.8167 17.9715C30.7163 17.7999 32.3335 17.5399 34.0287 18.1327C34.2887 18.2263 34.7515 18.4811 34.6111 18.6839C34.5331 18.7567 34.3615 18.6943 34.1275 18.6527V18.6579Z" fill="#441D39"/>
<path d="M31.7566 22.2609C32.1041 22.2609 32.3858 21.772 32.3858 21.1689C32.3858 20.5658 32.1041 20.0769 31.7566 20.0769C31.4091 20.0769 31.1274 20.5658 31.1274 21.1689C31.1274 21.772 31.4091 22.2609 31.7566 22.2609Z" fill="#441D39"/>
<path d="M22.3184 22.2609C22.6659 22.2609 22.9476 21.772 22.9476 21.1689C22.9476 20.5658 22.6659 20.0769 22.3184 20.0769C21.9709 20.0769 21.6892 20.5658 21.6892 21.1689C21.6892 21.772 21.9709 22.2609 22.3184 22.2609Z" fill="#441D39"/>
<path d="M27.4559 26.3014H26.4627C25.9375 26.3014 25.5111 26.1402 25.3447 25.875C25.2511 25.7294 25.2407 25.563 25.3135 25.407C25.5423 24.9234 25.7295 24.4554 25.7295 24.4554C25.7815 24.3202 25.9375 24.2578 26.0675 24.315C26.2027 24.367 26.2651 24.523 26.2079 24.653C26.2079 24.653 26.0155 25.1314 25.7815 25.6306C25.8075 25.6462 26.0207 25.7814 26.4627 25.7814H27.4559C27.6015 25.7814 27.7159 25.8958 27.7159 26.0414C27.7159 26.187 27.6015 26.3014 27.4559 26.3014Z" fill="#EDA07E"/>
<path d="M26.5046 29.5724C25.293 29.5724 24.3726 29.406 24.305 29.3904C24.1646 29.3644 24.071 29.2292 24.097 29.0888C24.123 28.9484 24.2634 28.8548 24.3986 28.8808C24.4298 28.8808 27.3262 29.4164 29.5934 28.5688C29.7286 28.5168 29.8794 28.5844 29.9262 28.7196C29.9782 28.8548 29.9106 29.0056 29.7754 29.0524C28.6886 29.458 27.4978 29.5724 26.4994 29.5724H26.5046Z" fill="#EDA07E"/>
<path d="M32.2764 24.1954C33.2787 24.1954 34.0912 24.0092 34.0912 23.7794C34.0912 23.5497 33.2787 23.3634 32.2764 23.3634C31.2742 23.3634 30.4616 23.5497 30.4616 23.7794C30.4616 24.0092 31.2742 24.1954 32.2764 24.1954Z" fill="#EAA281"/>
<path d="M21.6891 24.1954C22.6914 24.1954 23.5039 24.0092 23.5039 23.7794C23.5039 23.5497 22.6914 23.3634 21.6891 23.3634C20.6868 23.3634 19.8743 23.5497 19.8743 23.7794C19.8743 24.0092 20.6868 24.1954 21.6891 24.1954Z" fill="#EAA281"/>
<path d="M16.5308 16.7592L16.0108 16.728C16.5204 8.06476 24.596 6.83236 24.6792 6.82196L24.752 7.33676C24.752 7.33676 22.7864 7.62796 20.8104 8.93316C18.174 10.6752 16.7388 13.3064 16.5308 16.7592V16.7592Z" fill="#30132B"/>
<path d="M26.5825 6.37509V10.8835C26.5825 10.8835 34.2525 9.75509 37.3829 20.0823C37.3829 20.0823 39.5097 6.18789 26.5825 6.38029V6.37509Z" fill="#441D39"/>
<path d="M26.4005 6.37999V10.8884C26.4005 10.8884 19.1881 9.94719 16.0577 20.2744C16.0577 20.2744 13.4733 6.19279 26.4005 6.37999V6.37999Z" fill="#441D39"/>
<path d="M46.6908 45.6563C43.1704 44.4707 35.3496 40.5395 32.604 39.1355C32.604 39.1199 32.604 39.1043 32.5936 39.0887L31.9904 37.1491C31.9072 36.8787 31.6576 36.6915 31.3716 36.6915H20.9456C20.6336 36.6915 20.3684 36.9099 20.3112 37.2167L19.552 39.0627C19.5312 39.1615 19.5364 39.2551 19.5572 39.3435C16.5204 40.8879 9.23 44.5279 5.8656 45.6615C1.56 47.1123 1.56 54.4651 1.56 54.4651H51.0016C51.0016 54.4651 51.0016 47.1123 46.696 45.6615L46.6908 45.6563Z" fill="#002D72"/>
<path d="M16.2293 27.5391C16.0785 27.5391 16.0109 27.5391 15.9849 27.2583H15.9745C15.9745 27.2583 15.9745 27.1959 15.9745 27.1231C15.9641 26.8839 15.9641 26.5147 15.9641 25.9271C15.9641 25.3395 15.9641 24.9703 15.9745 24.7311C15.9745 24.6583 15.9745 24.6115 15.9745 24.5959H15.9849C16.0161 24.3151 16.0785 24.3151 16.2293 24.3151C16.3801 24.3151 16.4477 24.3151 16.4737 24.5959H16.4841C16.4841 24.5959 16.4841 24.6583 16.4841 24.7311C16.4945 24.9703 16.4945 25.3395 16.4945 25.9271C16.4945 26.5147 16.4945 26.8839 16.4841 27.1231C16.4841 27.1959 16.4841 27.2427 16.4841 27.2583H16.4737C16.4425 27.5391 16.3801 27.5391 16.2293 27.5391Z" fill="#FFA33A"/>
<path d="M37.5595 27.5391C37.4087 27.5391 37.3411 27.5391 37.3151 27.2583H37.3047C37.3047 27.2583 37.3047 27.1959 37.3047 27.1231C37.2943 26.8839 37.2943 26.5147 37.2943 25.9271C37.2943 25.3395 37.2943 24.9703 37.3047 24.7311C37.3047 24.6583 37.3047 24.6115 37.3047 24.5959H37.3151C37.3463 24.3151 37.4087 24.3151 37.5595 24.3151C37.7103 24.3151 37.7779 24.3151 37.8039 24.5959H37.8143C37.8143 24.5959 37.8143 24.6583 37.8143 24.7311C37.8247 24.9703 37.8247 25.3395 37.8247 25.9271C37.8247 26.5147 37.8247 26.8839 37.8143 27.1231C37.8143 27.1959 37.8143 27.2427 37.8143 27.2583H37.8039C37.7727 27.5391 37.7103 27.5391 37.5595 27.5391Z" fill="#FFA33A"/>
<path d="M21.6531 40.6281C21.6531 40.6281 21.6219 40.6281 21.6115 40.6281C21.4711 40.6021 21.3723 40.4721 21.3983 40.3265L21.7935 38.0177C21.8195 37.8773 21.9547 37.7837 22.0951 37.8045C22.2355 37.8305 22.3343 37.9605 22.3083 38.1061L21.9131 40.4149C21.8923 40.5397 21.7831 40.6333 21.6583 40.6333L21.6531 40.6281Z" fill="#056DAE"/>
<path d="M30.4617 40.6272C30.3369 40.6272 30.2277 40.5388 30.2069 40.4088L29.8117 38.1C29.7857 37.9596 29.8846 37.8244 30.025 37.7984C30.1654 37.7776 30.3005 37.8712 30.3265 38.0116L30.7217 40.3204C30.7477 40.4608 30.649 40.596 30.5086 40.622C30.493 40.622 30.4773 40.622 30.4669 40.622L30.4617 40.6272Z" fill="#056DAE"/>
<path d="M26.2859 40.8464C26.1403 40.8464 26.0259 40.732 26.0259 40.5864V38.2464C26.0259 38.1008 26.1403 37.9864 26.2859 37.9864C26.4315 37.9864 26.5459 38.1008 26.5459 38.2464V40.5864C26.5459 40.732 26.4315 40.8464 26.2859 40.8464Z" fill="#056DAE"/>
</g>
<defs>
<clipPath id="clip0_6_61">
<rect width="52" height="52" rx="26" fill="white"/>
</clipPath>
</defs>
</svg>
